<?xml version="1.0" encoding="UTF-8" standalone="no"?>
<!DOCTYPE svg PUBLIC "-//W3C//DTD SVG 1.1//EN" "http://www.w3.org/Graphics/SVG/1.1/DTD/svg11.dtd">
<svg width="100%" height="100%" viewBox="0 0 474 591" version="1.1" xmlns="http://www.w3.org/2000/svg" xmlns:xlink="http://www.w3.org/1999/xlink" xml:space="preserve" xmlns:serif="http://www.serif.com/" style="fill-rule:evenodd;clip-rule:evenodd;stroke-linejoin:round;stroke-miterlimit:2;">
    <g transform="matrix(1,0,0,1,-2122.18,-1580.12)">
        <g transform="matrix(1,0,0,1,1768.61,1243.88)">
            <g transform="matrix(1,0,0,1,-1.13687e-13,-1243.88)">
                <g id="icon">
                    <path id="SHIELD" d="M353.576,1580.12L827.526,1580.12L827.526,1925.3L827.254,1929.46L827.237,1929.62L827.217,1930.08L826.895,1933.7C822.838,1978.64 799.397,2020.99 760.676,2053.33C760.864,2053.23 761.053,2053.13 761.24,2053.02L760.132,2053.79C750.024,2062.17 738.989,2069.79 727.165,2076.55L590.86,2170.67L590.551,2170.46L590.243,2170.67L453.937,2076.55C442.113,2069.79 431.078,2062.17 420.97,2053.79L419.862,2053.02C420.05,2053.13 420.238,2053.23 420.426,2053.33C381.705,2020.99 358.264,1978.64 354.208,1933.7L353.886,1930.08L353.866,1929.62L353.849,1929.46L353.576,1925.3L353.576,1580.12ZM471.276,1958.61C471.426,1958.49 471.575,1958.37 471.723,1958.25C473.314,1956.94 474.603,1955.3 475.59,1953.33C476.576,1951.36 477.07,1948.94 477.07,1946.07C477.07,1943.33 476.592,1940.84 475.638,1938.58C474.683,1936.32 473.33,1934.37 471.579,1932.75C469.829,1931.13 467.744,1929.89 465.325,1929.03C462.906,1928.17 460.2,1927.74 457.209,1927.74L450.811,1927.74C447.883,1927.74 445.543,1928.17 443.793,1929.03C442.042,1929.89 440.769,1931.24 439.973,1933.09C439.177,1934.93 438.78,1937.29 438.78,1940.15L438.78,1988.37C438.78,1989.96 439.209,1991.17 440.069,1992C440.928,1992.83 441.931,1993.24 443.076,1993.24C444.222,1993.24 445.225,1992.83 446.084,1992C446.944,1991.17 447.373,1989.96 447.373,1988.37L447.373,1940.15C447.373,1938.94 447.405,1938.08 447.469,1937.57C447.533,1937.06 447.803,1936.73 448.28,1936.57C448.758,1936.41 449.601,1936.33 450.811,1936.33L457.209,1936.33C459.5,1936.33 461.49,1936.7 463.176,1937.43C464.863,1938.16 466.168,1939.26 467.091,1940.72C468.014,1942.19 468.476,1943.97 468.476,1946.07C468.476,1948.43 468.014,1950.21 467.091,1951.42C466.168,1952.63 464.943,1953.55 463.415,1954.19C462.842,1954.44 462.047,1954.63 461.028,1954.76C460.009,1954.89 458.88,1954.98 457.638,1955.05C456.397,1955.11 455.044,1955.14 453.58,1955.14C451.989,1955.14 450.779,1955.57 449.952,1956.43C449.921,1956.46 449.891,1956.5 449.861,1956.53C449.403,1957 449.083,1957.54 448.901,1958.15C448.888,1958.19 448.875,1958.24 448.864,1958.29C448.761,1958.65 448.71,1959.04 448.71,1959.44C448.71,1959.84 448.761,1960.23 448.864,1960.6C448.875,1960.64 448.888,1960.68 448.901,1960.73C449.083,1961.34 449.403,1961.88 449.861,1962.35C449.891,1962.38 449.921,1962.42 449.952,1962.45C450.779,1963.31 451.989,1963.74 453.58,1963.74C455.426,1963.74 457.002,1963.75 458.307,1963.78C459.612,1963.82 460.726,1963.9 461.649,1964.02C462.572,1964.15 463.383,1964.31 464.084,1964.5C465.548,1964.95 466.805,1965.6 467.855,1966.46C468.906,1967.32 469.717,1968.35 470.29,1969.56C470.863,1970.77 471.15,1972.17 471.15,1973.76C471.15,1975.1 470.943,1976.34 470.529,1977.49C470.115,1978.63 469.51,1979.63 468.715,1980.5C467.919,1981.35 466.98,1982.07 465.898,1982.64C464.052,1983.53 462.174,1984 460.264,1984.03C458.354,1984.06 456.126,1984.08 453.58,1984.08C451.989,1984.08 450.779,1984.51 449.952,1985.36C449.124,1986.22 448.71,1987.23 448.71,1988.37C448.71,1989.52 449.124,1990.52 449.952,1991.38C450.779,1992.24 451.989,1992.67 453.58,1992.67C455.999,1992.67 458.1,1992.65 459.882,1992.62C461.665,1992.59 463.32,1992.41 464.847,1992.1C466.375,1991.78 467.999,1991.17 469.717,1990.28C471.754,1989.26 473.521,1987.93 475.017,1986.27C476.513,1984.62 477.675,1982.74 478.502,1980.64C479.33,1978.54 479.743,1976.25 479.743,1973.76C479.743,1970.96 479.171,1968.38 478.025,1966.03C476.879,1963.67 475.287,1961.67 473.25,1960.01C472.625,1959.51 471.967,1959.04 471.276,1958.61ZM491.297,1988.85C491.297,1990.51 491.727,1991.73 492.586,1992.53C493.446,1993.32 494.448,1993.72 495.594,1993.72C496.74,1993.72 497.743,1993.32 498.602,1992.53C499.462,1991.73 499.891,1990.51 499.891,1988.85L499.891,1931.56C499.891,1929.97 499.462,1928.77 498.602,1927.98C497.743,1927.18 496.74,1926.78 495.594,1926.78C494.448,1926.78 493.446,1927.18 492.586,1927.98C491.727,1928.77 491.297,1929.97 491.297,1931.56L491.297,1988.85ZM673.841,1963.8C676.716,1962.17 679.033,1960 680.791,1957.29C682.669,1954.39 683.608,1951.04 683.608,1947.22C683.608,1944.42 683.115,1941.84 682.128,1939.48C681.142,1937.13 679.725,1935.08 677.879,1933.32C676.033,1931.57 673.821,1930.2 671.243,1929.22C668.665,1928.23 665.784,1927.74 662.601,1927.74L653.721,1927.74C651.557,1927.74 649.806,1928.06 648.469,1928.69C647.132,1929.33 646.098,1930.28 645.366,1931.56C644.634,1932.83 644.14,1934.47 643.886,1936.48C643.631,1938.48 643.504,1940.82 643.504,1943.49L643.504,1988.85C643.504,1990.44 643.933,1991.65 644.793,1992.48C645.652,1993.31 646.655,1993.72 647.801,1993.72C648.947,1993.72 649.949,1993.31 650.809,1992.48C651.668,1991.65 652.098,1990.44 652.098,1988.85L652.098,1943.49C652.098,1942.35 652.082,1941.33 652.05,1940.44C652.018,1939.55 652.05,1938.8 652.145,1938.19C652.241,1937.59 652.48,1937.13 652.862,1936.81C653.243,1936.49 653.848,1936.33 654.676,1936.33L662.601,1936.33C665.148,1936.33 667.344,1936.78 669.19,1937.67C671.036,1938.56 672.468,1939.82 673.487,1941.44C674.505,1943.06 675.015,1944.99 675.015,1947.22C675.015,1949.44 674.537,1951.37 673.582,1952.99C672.627,1954.62 671.306,1955.86 669.619,1956.72C667.933,1957.58 665.975,1958.01 663.747,1958.01L657.827,1958.01C656.554,1958.01 655.519,1958.29 654.724,1958.87C653.928,1959.44 653.403,1960.16 653.148,1961.02C652.893,1961.88 652.893,1962.73 653.148,1963.59C653.403,1964.45 653.928,1965.17 654.724,1965.74C655.519,1966.32 656.554,1966.6 657.827,1966.6C660.373,1966.6 662.315,1966.79 663.652,1967.17C664.988,1967.56 666.118,1968.19 667.041,1969.08C667.964,1969.98 668.999,1971.22 670.145,1972.81C671.163,1974.14 672.134,1975.55 673.057,1977.01C673.98,1978.47 674.919,1979.97 675.874,1981.5C676.829,1983.03 677.8,1984.6 678.786,1986.22C679.773,1987.85 680.807,1989.49 681.89,1991.14C682.781,1992.54 683.815,1993.34 684.993,1993.53C686.171,1993.72 687.221,1993.51 688.144,1992.91C689.067,1992.3 689.688,1991.43 690.006,1990.28C690.324,1989.14 690.038,1987.89 689.147,1986.56C688.064,1984.84 687.03,1983.18 686.043,1981.59C685.057,1980 684.086,1978.43 683.131,1976.87C682.176,1975.31 681.205,1973.78 680.219,1972.28C679.232,1970.79 678.229,1969.31 677.211,1967.84C676.256,1966.51 675.221,1965.25 674.107,1964.07C674.02,1963.98 673.931,1963.89 673.841,1963.8ZM717.817,1959.03C717.521,1958.55 717.211,1958.07 716.886,1957.58C715.772,1955.89 714.451,1953.74 712.923,1951.13C711.904,1949.35 710.965,1947.66 710.106,1946.07C709.247,1944.48 708.387,1942.87 707.528,1941.25C706.668,1939.63 705.73,1937.88 704.711,1936C703.692,1934.12 702.547,1931.97 701.273,1929.55C700.51,1928.09 699.555,1927.21 698.409,1926.93C697.263,1926.64 696.181,1926.77 695.162,1927.31C694.144,1927.85 693.444,1928.68 693.062,1929.79C692.68,1930.9 692.871,1932.16 693.634,1933.56C694.971,1936.05 696.149,1938.24 697.168,1940.15C698.186,1942.06 699.125,1943.84 699.984,1945.5C700.844,1947.15 701.719,1948.76 702.61,1950.32C703.501,1951.88 704.456,1953.58 705.475,1955.43C706.684,1957.53 707.782,1959.27 708.769,1960.63C709.756,1962 710.583,1963.31 711.252,1964.55C711.92,1965.79 712.43,1967.17 712.78,1968.7C713.13,1970.23 713.305,1972.2 713.305,1974.62C713.305,1974.65 713.305,1974.69 713.305,1974.72L713.305,1988.85C713.305,1990.12 713.591,1991.16 714.164,1991.95C714.737,1992.75 715.453,1993.27 716.313,1993.53C717.172,1993.78 718.031,1993.78 718.891,1993.53C719.75,1993.27 720.466,1992.75 721.039,1991.95C721.612,1991.16 721.899,1990.12 721.899,1988.85L721.899,1974.72C721.899,1974.69 721.899,1974.65 721.899,1974.62C721.909,1972.49 722.259,1970.49 722.949,1968.61C723.649,1966.7 724.445,1964.91 725.336,1963.26C726.546,1960.97 727.692,1958.84 728.774,1956.86L732.02,1950.94C733.102,1948.97 734.28,1946.84 735.553,1944.54C736.572,1942.76 737.559,1940.96 738.513,1939.15C739.468,1937.33 740.455,1935.5 741.474,1933.66C742.301,1932.26 742.524,1930.98 742.142,1929.84C741.76,1928.69 741.076,1927.85 740.089,1927.31C739.102,1926.77 738.036,1926.64 736.89,1926.93C735.744,1927.21 734.789,1928.06 734.026,1929.46C733.325,1930.67 732.641,1931.88 731.973,1933.09C731.304,1934.3 730.652,1935.5 730.015,1936.71L728.105,1940.34C726.768,1942.7 725.559,1944.86 724.477,1946.84L721.23,1952.76C720.182,1954.67 719.044,1956.76 717.817,1959.03ZM587.474,1969.03C586.14,1969.73 585.019,1970.66 584.111,1971.81C583.029,1973.17 582.137,1974.88 581.437,1976.91C580.992,1978.19 580.562,1979.38 580.148,1980.5C579.734,1981.61 579.336,1982.72 578.955,1983.84C578.573,1984.95 578.159,1986.14 577.713,1987.42C577.14,1988.94 577.124,1990.23 577.665,1991.29C578.207,1992.34 579.018,1993.05 580.1,1993.43C581.183,1993.82 582.265,1993.77 583.347,1993.29C584.429,1992.81 585.225,1991.81 585.734,1990.28C586.18,1989.01 586.609,1987.82 587.023,1986.7C587.437,1985.59 587.835,1984.47 588.217,1983.36C588.599,1982.25 589.013,1981.05 589.458,1979.78C589.84,1978.89 590.19,1978.17 590.508,1977.63C590.827,1977.09 591.272,1976.71 591.845,1976.48C592.418,1976.26 593.246,1976.15 594.328,1976.15L610.943,1976.15C612.216,1976.15 613.25,1975.86 614.046,1975.29C614.842,1974.72 615.367,1974 615.622,1973.14C615.876,1972.28 615.876,1971.42 615.622,1970.56C615.367,1969.7 614.842,1968.99 614.046,1968.41C613.25,1967.84 612.216,1967.56 610.943,1967.56L599.102,1967.56C597.956,1967.56 597.081,1967.38 596.476,1967.03C595.872,1966.68 595.506,1966.17 595.378,1965.5C595.251,1964.84 595.267,1964.04 595.426,1963.12C595.585,1962.19 595.856,1961.19 596.238,1960.11C596.811,1958.39 597.415,1956.64 598.052,1954.86L601.871,1944.16C602.508,1942.38 603.113,1940.63 603.686,1938.91C604.004,1937.95 604.243,1937.3 604.402,1936.95C604.561,1936.6 604.72,1936.56 604.879,1936.81C605.038,1937.06 605.277,1937.67 605.595,1938.62C606.678,1941.55 607.839,1944.8 609.081,1948.36C610.322,1951.93 611.563,1955.56 612.805,1959.25C614.046,1962.94 615.256,1966.49 616.433,1969.89C617.611,1973.3 618.677,1976.34 619.632,1979.01C620.014,1980.03 620.428,1981.18 620.873,1982.45C621.319,1983.73 621.78,1985.05 622.258,1986.41C622.735,1987.78 623.197,1989.07 623.642,1990.28C624.152,1991.81 624.947,1992.81 626.03,1993.29C627.112,1993.77 628.194,1993.82 629.276,1993.43C630.358,1993.05 631.17,1992.34 631.711,1991.29C632.252,1990.23 632.236,1988.94 631.663,1987.42C631.218,1986.14 630.756,1984.82 630.279,1983.46C629.801,1982.09 629.34,1980.77 628.894,1979.49C628.449,1978.22 628.035,1977.11 627.653,1976.15C626.889,1974.05 626.061,1971.68 625.17,1969.04C624.279,1966.39 623.34,1963.61 622.353,1960.68C621.367,1957.75 620.364,1954.78 619.346,1951.75C618.327,1948.73 617.308,1945.75 616.29,1942.83C615.271,1939.9 614.285,1937.13 613.33,1934.52C612.311,1931.78 611.022,1929.73 609.463,1928.36C607.903,1926.99 606.264,1926.31 604.545,1926.31C602.826,1926.31 601.219,1926.99 599.723,1928.36C598.227,1929.73 597.002,1931.75 596.047,1934.42C595.346,1936.59 594.646,1938.67 593.946,1940.68C593.246,1942.68 592.561,1944.62 591.893,1946.5C591.225,1948.38 590.556,1950.21 589.888,1951.99C589.219,1953.77 588.599,1955.53 588.026,1957.24C587.135,1959.85 586.705,1962.3 586.737,1964.6C586.759,1966.22 587.005,1967.7 587.474,1969.03ZM438.906,1646.48L438.906,1909.56L486.539,1909.56L486.539,1646.48L438.906,1646.48ZM581.183,1646.68C554.997,1646.68 533.916,1667.76 533.916,1693.94L533.916,1862.09C533.916,1888.28 554.997,1909.36 581.183,1909.36L694.93,1909.36C721.116,1909.36 742.197,1888.28 742.197,1862.09L742.197,1693.94C742.197,1667.76 721.116,1646.68 694.93,1646.68L581.183,1646.68ZM604.62,1694.11L671.441,1694.11C684.229,1694.11 694.524,1704.4 694.524,1717.19L694.524,1839.25C694.524,1852.04 684.229,1862.33 671.441,1862.33L604.62,1862.33C591.832,1862.33 581.537,1852.04 581.537,1839.25L581.537,1717.19C581.537,1704.4 591.832,1694.11 604.62,1694.11ZM557.428,1975.17C556.294,1973.81 555.194,1972.35 554.128,1970.8C552.791,1968.83 551.295,1966.66 549.64,1964.31C547.985,1961.95 546.282,1959.57 544.531,1957.15C542.781,1954.73 541.11,1952.42 539.518,1950.23C537.927,1948.03 536.558,1946.1 535.412,1944.45L533.121,1941.2C532.357,1940.12 531.577,1939.01 530.781,1937.86C529.986,1936.71 529.158,1935.55 528.299,1934.37C527.439,1933.2 526.532,1931.97 525.577,1930.7C524.686,1929.42 523.763,1928.47 522.808,1927.83C521.853,1927.2 520.946,1926.83 520.087,1926.74C519.227,1926.64 518.463,1926.82 517.795,1927.26C517.127,1927.71 516.601,1928.39 516.22,1929.31C515.838,1930.24 515.647,1931.37 515.647,1932.7L515.647,1988.85C515.647,1990.44 516.076,1991.63 516.936,1992.43C517.795,1993.23 518.798,1993.62 519.944,1993.62C521.089,1993.62 522.092,1993.23 522.951,1992.43C523.811,1991.63 524.24,1990.44 524.24,1988.85L524.24,1943.78C524.24,1943.65 524.288,1943.62 524.384,1943.68C524.479,1943.75 524.591,1943.88 524.718,1944.07C524.845,1944.26 525.036,1944.51 525.291,1944.83C525.545,1945.21 525.816,1945.61 526.102,1946.02C526.389,1946.44 526.723,1946.93 527.105,1947.5C527.487,1948.08 527.949,1948.75 528.49,1949.51C529.031,1950.27 529.651,1951.16 530.352,1952.18C531.306,1953.58 532.357,1955.1 533.503,1956.72C534.649,1958.34 535.842,1960.03 537.083,1961.78C538.325,1963.53 539.582,1965.3 540.855,1967.08C542.128,1968.86 543.338,1970.61 544.484,1972.33C545.63,1974.05 546.712,1975.64 547.73,1977.11L549.449,1979.68C549.958,1980.45 550.452,1981.18 550.929,1981.88C551.407,1982.58 551.9,1983.3 552.409,1984.03C552.918,1984.76 553.459,1985.54 554.032,1986.37C554.605,1987.19 555.274,1988.12 556.038,1989.14C556.929,1990.35 557.852,1991.3 558.807,1992C559.762,1992.7 560.669,1993.13 561.528,1993.29C562.388,1993.45 563.151,1993.35 563.82,1993C564.488,1992.65 565.029,1992.08 565.443,1991.29C565.857,1990.49 566.064,1989.45 566.064,1988.18L566.064,1931.56C566.064,1929.9 565.634,1928.68 564.775,1927.88C563.915,1927.09 562.913,1926.69 561.767,1926.69C560.621,1926.69 559.618,1927.09 558.759,1927.88C557.9,1928.68 557.47,1929.9 557.47,1931.56L557.47,1973.67C557.47,1974.19 557.456,1974.69 557.428,1975.17Z" style="fill:#a10707;fill-rule:nonzero;"/>
                </g>
            </g>
        </g>
    </g>
</svg>
